<svg width="1409" height="334" viewBox="0 0 1409 334" fill="none" xmlns="http://www.w3.org/2000/svg">
<circle cx="337" cy="94" r="7" fill="#D9D9D9"/>
<circle cx="509" cy="180" r="7" fill="#D9D9D9"/>
<circle cx="225.843" cy="243.896" r="7" transform="rotate(136.483 225.843 243.896)" fill="#D9D9D9"/>
<circle cx="41.8962" cy="299.965" r="7" transform="rotate(136.483 41.8962 299.965)" fill="#D9D9D9"/>
<circle cx="411.322" cy="223.012" r="3.5" transform="rotate(167.765 411.322 223.012)" fill="#D9D9D9"/>
<circle cx="318.162" cy="199.214" r="3.5" transform="rotate(167.765 318.162 199.214)" fill="#D9D9D9"/>
<circle cx="449.26" cy="138.538" r="3.48554" transform="rotate(-55.752 449.26 138.538)" fill="#D9D9D9"/>
<circle cx="532.857" cy="91.8428" r="3.48554" transform="rotate(-55.752 532.857 91.8428)" fill="#D9D9D9"/>
<ellipse cx="4.37759" cy="3.73826" rx="4.37759" ry="3.73826" transform="matrix(-0.93401 -0.357247 0.546278 -0.837604 83.554 151.286)" fill="#D9D9D9"/>
<ellipse cx="4.37759" cy="3.73826" rx="4.37759" ry="3.73826" transform="matrix(-0.93401 -0.357247 0.546278 -0.837604 8.17743 74.3901)" fill="#D9D9D9"/>
<ellipse cx="4.47048" cy="3.58878" rx="4.47048" ry="3.58878" transform="matrix(0.973742 -0.227655 0.370309 0.928909 183.529 102.178)" fill="#D9D9D9"/>
<ellipse cx="4.47048" cy="3.58878" rx="4.47048" ry="3.58878" transform="matrix(0.973742 -0.227655 0.370309 0.928909 306.818 118.127)" fill="#D9D9D9"/>
<circle cx="751.176" cy="249.943" r="7" transform="rotate(156.744 751.176 249.943)" fill="#D9D9D9"/>
<circle cx="559.195" cy="238.843" r="7" transform="rotate(156.744 559.195 238.843)" fill="#D9D9D9"/>
<circle cx="794.117" cy="68.3362" r="7" transform="rotate(-66.7729 794.117 68.3362)" fill="#D9D9D9"/>
<circle cx="631.954" cy="160.758" r="3.5" transform="rotate(-35.4911 631.954 160.758)" fill="#D9D9D9"/>
<circle cx="726.941" cy="145.839" r="3.5" transform="rotate(-35.4911 726.941 145.839)" fill="#D9D9D9"/>
<circle cx="630.452" cy="253.348" r="3.48554" transform="rotate(100.992 630.452 253.348)" fill="#D9D9D9"/>
<circle cx="572.085" cy="329.257" r="3.48554" transform="rotate(100.992 572.085 329.257)" fill="#D9D9D9"/>
<ellipse cx="4.37759" cy="3.73826" rx="4.37759" ry="3.73826" transform="matrix(0.999177 -0.040564 -0.171173 0.985241 961.411 97.2408)" fill="#D9D9D9"/>
<ellipse cx="4.37759" cy="3.73826" rx="4.37759" ry="3.73826" transform="matrix(0.999177 -0.040564 -0.171173 0.985241 1061.02 138.127)" fill="#D9D9D9"/>
<ellipse cx="4.47048" cy="3.58878" rx="4.47048" ry="3.58878" transform="matrix(-0.804738 0.59363 -0.706991 -0.707222 888.949 181.833)" fill="#D9D9D9"/>
<ellipse cx="4.47048" cy="3.58878" rx="4.47048" ry="3.58878" transform="matrix(-0.804738 0.59363 -0.706991 -0.707222 769.38 215.859)" fill="#D9D9D9"/>
<circle cx="1214.18" cy="249.943" r="7" transform="rotate(156.744 1214.18 249.943)" fill="#D9D9D9"/>
<circle cx="1022.2" cy="238.843" r="7" transform="rotate(156.744 1022.2 238.843)" fill="#D9D9D9"/>
<circle cx="1257.12" cy="68.3362" r="7" transform="rotate(-66.7729 1257.12 68.3362)" fill="#D9D9D9"/>
<circle cx="1094.95" cy="160.758" r="3.5" transform="rotate(-35.4911 1094.95 160.758)" fill="#D9D9D9"/>
<circle cx="1189.94" cy="145.839" r="3.5" transform="rotate(-35.4911 1189.94 145.839)" fill="#D9D9D9"/>
<circle cx="1093.45" cy="253.348" r="3.48554" transform="rotate(100.992 1093.45 253.348)" fill="#D9D9D9"/>
<circle cx="1035.09" cy="329.257" r="3.48554" transform="rotate(100.992 1035.09 329.257)" fill="#D9D9D9"/>
<ellipse cx="4.47048" cy="3.58878" rx="4.47048" ry="3.58878" transform="matrix(-0.804738 0.59363 -0.706991 -0.707222 1351.95 181.833)" fill="#D9D9D9"/>
<ellipse cx="4.47048" cy="3.58878" rx="4.47048" ry="3.58878" transform="matrix(-0.804738 0.59363 -0.706991 -0.707222 1232.38 215.859)" fill="#D9D9D9"/>
</svg>
